<svg xmlns="http://www.w3.org/2000/svg" xmlns:xlink="http://www.w3.org/1999/xlink" width="155.845" height="43.85" viewBox="0 0 155.845 43.85"><defs><style>.a{fill:#9e1830;}.b{fill:url(#a);}.c{fill:#bf2c29;}.d{fill:#d15a2c;}.e{clip-path:url(#b);}.f,.g{fill:none;stroke:#fff;}.f{stroke-linecap:round;stroke-linejoin:round;stroke-width:0.4px;stroke-dasharray:1.05;}.g{stroke-miterlimit:10;stroke-width:0.6px;}.h{fill:#fff;}.i{fill:#2e509e;}.j{fill:#f16a36;}.k{fill:#f49f24;}</style><radialGradient id="a" cx="0.5" cy="0.5" r="0.477" gradientTransform="translate(-0.053) scale(1.106 1)" gradientUnits="objectBoundingBox"><stop offset="0.265" stop-color="#fbdf03"/><stop offset="0.32" stop-color="#fbda02"/><stop offset="0.378" stop-color="#fccd00"/><stop offset="0.397" stop-color="#fdc800"/><stop offset="0.433" stop-color="#fbc203"/><stop offset="0.481" stop-color="#f8b10c"/><stop offset="0.536" stop-color="#f3951c"/><stop offset="0.557" stop-color="#f18923"/><stop offset="0.623" stop-color="#ed8726"/><stop offset="0.681" stop-color="#e2822f"/><stop offset="0.684" stop-color="#e28230"/><stop offset="0.694" stop-color="#de792f"/><stop offset="0.749" stop-color="#cf522a"/><stop offset="0.792" stop-color="#c63927"/><stop offset="0.819" stop-color="#c33127"/><stop offset="0.875" stop-color="#b1252b"/><stop offset="0.944" stop-color="#a21b2e"/><stop offset="1" stop-color="#9d1830"/></radialGradient><clipPath id="b"><circle class="a" cx="5.522" cy="5.522" r="5.522"/></clipPath></defs><g transform="translate(-3643 -201.94)"><g transform="translate(3408.882 -16.968)"><g transform="translate(234.118 218.908)"><g transform="translate(59.396 0)"><g transform="translate(27.56 7.047)"><circle class="a" cx="0.428" cy="0.428" r="0.428"/></g><path class="b" d="M673.365,241.742s0-.007,0-.01a7.691,7.691,0,0,1-1.049.072,7.591,7.591,0,1,1,5.736-12.564.426.426,0,0,0,.652-.548l-.046-.053c-.123-.14-.251-.274-.382-.4a8.447,8.447,0,0,0-13.542,9.71.426.426,0,1,1-.764.377,9.209,9.209,0,0,1-.955-4.109,9.294,9.294,0,0,1,15.729-6.714s.313.292.458.452a.426.426,0,0,0,.635-.568c-.027-.03-.056-.058-.084-.088-.1-.11-.206-.218-.313-.322l-.08-.077c-.125-.119-.251-.236-.38-.348a10.152,10.152,0,0,0-11.722-1.152.426.426,0,0,1-.425-.739,11.006,11.006,0,0,1,12.14.785l.014.01c.062.047.11.07.172.119a.426.426,0,0,0,.6-.069.459.459,0,0,0,.07-.118.376.376,0,0,0,.02-.2.469.469,0,0,0-.033-.106.575.575,0,0,0-.027-.054.507.507,0,0,0-.053-.065,11.783,11.783,0,0,0-5.231-2.413.426.426,0,1,1,.157-.838,12.631,12.631,0,0,1,5.5,2.495c.172.132.342.261.524.4a.438.438,0,0,0,.6-.042.426.426,0,0,0-.042-.6c-.114-.1-.231-.194-.348-.29a.444.444,0,0,1-.118-.3.432.432,0,0,1,.67-.361c.014.01.123.091.137.1a14.7,14.7,0,0,1,2.339,2.484.426.426,0,1,0,.684-.509,15.31,15.31,0,0,0-26.15,2.64.426.426,0,1,0,.772.362c.12-.255.249-.5.382-.75l0-.009a.451.451,0,0,1,.168-.168.423.423,0,0,1,.631.375.343.343,0,0,1-.046.212,13.586,13.586,0,0,0-1.492,8.48c0,.012,0,.025.005.037.015.1.033.2.05.3.014.079.027.159.042.238.009.049.021.1.031.147.026.128.053.256.083.382l.009.036a13.655,13.655,0,0,0,1.783,4.183l.029.045c.073.113.149.225.225.336l.079.114c.057.082.117.162.176.243.048.065.1.13.144.193.034.045.07.089.1.133a13.672,13.672,0,0,0,5.221,4.054l0,.005c.255.112.513.219.777.316a.426.426,0,1,1-.294.8c-.221-.081-.439-.169-.654-.261a.417.417,0,0,0-.166-.022.426.426,0,0,0-.156.818,15.378,15.378,0,0,0,11.99-.027A6.793,6.793,0,0,1,673.365,241.742Zm-8.4,2.354a.426.426,0,0,1-.6.067,12.728,12.728,0,0,1,5.528-22.447.426.426,0,1,1,.161.837A11.876,11.876,0,0,0,664.9,243.5.426.426,0,0,1,664.967,244.1Zm6.691.7a.426.426,0,0,1-.423.383l-.044,0a11.017,11.017,0,0,1-6.571-18.84.426.426,0,0,1,.6.61,10.165,10.165,0,0,0,6.062,17.382A.426.426,0,0,1,671.658,244.792Zm-12.748-5.17a.426.426,0,0,1-.791.319,15.226,15.226,0,0,1-1.108-5.728,15.444,15.444,0,0,1,.248-2.758.426.426,0,0,1,.839.153,14.509,14.509,0,0,0-.2,1.692c0,.006,0,.013,0,.019q-.013.218-.02.436c0,.012,0,.023,0,.035,0,.141-.009.282-.009.423A14.373,14.373,0,0,0,658.91,239.622Z" transform="translate(-657.011 -218.908)"/><g transform="translate(22.956 6.736)"><circle class="c" cx="0.428" cy="0.428" r="0.428"/></g><g transform="translate(22.89 9.315)"><circle class="d" cx="0.428" cy="0.428" r="0.428"/></g><g transform="translate(23.555 10.414)"><circle class="d" cx="0.428" cy="0.428" r="0.428"/></g><g transform="translate(24.459 5.822)"><circle class="a" cx="0.428" cy="0.428" r="0.428"/></g><g transform="translate(25.295 6.797)"><circle class="a" cx="0.428" cy="0.428" r="0.428"/></g><circle class="a" cx="0.428" cy="0.428" r="0.428" transform="translate(0.713 10.349)"/><g transform="translate(7.908 28.078)"><circle class="a" cx="0.428" cy="0.428" r="0.428"/></g><g transform="translate(6.818 27.398)"><circle class="a" cx="0.428" cy="0.428" r="0.428"/></g><g transform="translate(17.624 17.313)"><circle class="a" cx="5.522" cy="5.522" r="5.522"/><g class="e"><path class="f" d="M747.67,324.893a7.612,7.612,0,1,1,7.612-7.611A7.62,7.62,0,0,1,747.67,324.893Z" transform="translate(-746.018 -314.235)"/><circle class="g" cx="6.57" cy="6.57" r="6.57" transform="translate(-4.918 -3.523)"/><path class="f" d="M760.42,335.56a5.528,5.528,0,1,1,5.528-5.528A5.534,5.534,0,0,1,760.42,335.56Z" transform="translate(-758.768 -326.985)"/></g></g></g><path class="h" d="M901.749,257.708,891.7,244.335l-5.943,6.09v7.282H882.3V230.3h3.456v15.339L901.136,230.3h4.079L894,241.988l11.724,15.72Z" transform="translate(-791.263 -228.696)"/><g transform="translate(53.289 1.599)"><rect class="h" width="3.456" height="27.412"/></g><path class="h" d="M1260.993,254a7.768,7.768,0,0,1-7.759-7.759V244.1h9.5v-3.456h-9.5V229.967h-3.476v16.269a11.248,11.248,0,0,0,11.236,11.236h1.738V254Z" transform="translate(-1107.109 -228.414)"/><path class="i" d="M449.307,302.039v.07c0-.023,0-.046,0-.07Z" transform="translate(-419.083 -290.363)"/><path class="h" d="M459.48,230.1a10.172,10.172,0,0,0-10.172,10.1c0,.023,0,.046,0,.07v17.266h3.461V240.277a6.712,6.712,0,0,1,13.424,0c0,.164-.008.327-.02.488h3.469c.008-.162.012-.324.012-.488A10.173,10.173,0,0,0,459.48,230.1Z" transform="translate(-419.083 -228.532)"/><g transform="translate(0 1.553)"><path class="h" d="M257.254,247.942a10.291,10.291,0,1,1,0-8.445h3.707a13.752,13.752,0,1,0,0,8.445Z" transform="translate(-234.118 -229.967)"/></g><path class="h" d="M1062.042,244.1c0-.112,0-.224,0-.336a13.779,13.779,0,1,0-.836,4.748h-3.772a10.333,10.333,0,1,1,.674-7.868H1043.24V244.1Z" transform="translate(-922.121 -228.414)"/></g></g><g transform="translate(3752 235.725)"><g transform="translate(0 0.01)"><circle class="j" cx="5.023" cy="5.023" r="5.023"/></g><g transform="translate(14.92)"><path class="k" d="M286.677,63.2v-.028a4.973,4.973,0,0,1,5.1-5.033,4.742,4.742,0,0,1,4.107,2.019l-2.019,1.563a2.592,2.592,0,0,0-2.116-1.134,2.393,2.393,0,0,0-2.309,2.557v.028a2.394,2.394,0,0,0,2.309,2.586,2.645,2.645,0,0,0,2.185-1.175l2.017,1.438a5.1,5.1,0,0,1-9.277-2.821Z" transform="translate(-286.677 -58.136)"/><g transform="translate(9.818)"><path class="k" d="M294.045,63.2v-.028a5.216,5.216,0,0,1,10.424-.028v.028a5.216,5.216,0,0,1-10.424.028Zm7.687,0v-.028a2.516,2.516,0,0,0-2.489-2.613,2.467,2.467,0,0,0-2.448,2.585v.028a2.513,2.513,0,0,0,2.476,2.613A2.469,2.469,0,0,0,301.732,63.2Z" transform="translate(-294.045 -58.136)"/></g><g transform="translate(21.639 0.195)"><path class="k" d="M302.917,58.282h2.834l2.309,3.747,2.308-3.747H313.2V67.96h-2.668V62.4L308.06,66.19H308l-2.461-3.762V67.96h-2.626Z" transform="translate(-302.917 -58.282)"/></g></g></g></g></svg>